<?xml version="1.0" encoding="iso-8859-1"?>
<!-- Generator: Adobe Illustrator 19.0.0, SVG Export Plug-In . SVG Version: 6.00 Build 0)  -->
<svg version="1.1" id="Capa_1" xmlns="http://www.w3.org/2000/svg" xmlns:xlink="http://www.w3.org/1999/xlink" x="0px" y="0px"
	 viewBox="0 0 512 512" style="enable-background:new 0 0 512 512;" xml:space="preserve">
<g>
	<g>
		<path d="M253.426,376.101c-27.57,0-49.999,22.407-49.999,49.95c0,27.543,22.429,49.95,49.999,49.95s50-22.407,50-49.95
			C303.426,398.508,280.996,376.101,253.426,376.101z"/>
	</g>
</g>
<g>
	<g>
		<path d="M403.425,376.101c-27.57,0-50,22.407-50,49.95c0,27.543,22.429,49.95,50,49.95c27.57,0,49.999-22.407,49.999-49.95
			C453.424,398.508,430.995,376.101,403.425,376.101z"/>
	</g>
</g>
<g>
	<g>
		<path d="M500.732,175.595L181.29,93.583c-5.068-1.301-10.447,0.13-14.196,3.776c-3.749,3.646-5.326,8.98-4.16,14.075
			l49.101,214.703h-19.226L134.057,69.232c-1.309-5.724-5.837-10.158-11.588-11.346L18.038,36.312
			C9.928,34.639,1.99,39.855,0.313,47.967c-1.676,8.113,3.542,16.048,11.655,17.725l94.993,19.624L166.23,344.48
			c1.56,6.82,7.626,11.656,14.622,11.656h295.147c7.454,0,13.828-5.548,14.857-12.938l21-151.028
			C512.905,184.623,508.119,177.491,500.732,175.595z M301.662,271.207c0,8.276-6.716,14.985-15,14.985s-15-6.709-15-14.985v-65.934
			c0-8.276,6.716-14.985,15-14.985s15,6.709,15,14.985V271.207z M365.857,271.206c0,8.276-6.716,14.985-15,14.985
			s-15-6.709-15-14.985v-45.954c0-8.276,6.716-14.985,15-14.985s15,6.709,15,14.985V271.206z M430.051,271.206
			c0,8.276-6.716,14.985-15,14.985s-15-6.709-15-14.985v-29.97c0-8.276,6.716-14.985,15-14.985s15,6.709,15,14.985V271.206z"/>
	</g>
</g>
<g>
</g>
<g>
</g>
<g>
</g>
<g>
</g>
<g>
</g>
<g>
</g>
<g>
</g>
<g>
</g>
<g>
</g>
<g>
</g>
<g>
</g>
<g>
</g>
<g>
</g>
<g>
</g>
<g>
</g>
</svg>
