<svg id="Capa_1" enable-background="new 0 0 510.469 510.469" height="512" viewBox="0 0 510.469 510.469" width="512" xmlns="http://www.w3.org/2000/svg"><g><path d="m291.388 293.509-11.285-41.205-6.135-28.084h-21.931l-24.341 73.328 7.347 65.002 4.116 14.185h38.594l9.3-34.799 4.646-44.623c.134-1.276.028-2.566-.311-3.804z" fill="#d7d0d6"/><path d="m234.981 376.735 5.527 78.394 9.309 38.903 5.198 8.896c.296.016.589.042.889.042h.21c8.309 0 15.27-6.288 16.113-14.554l5.851-56.405 10.504-55.275h-53.601z" fill="#d7d0d6"/><path d="m255.258 491.056-5.851-56.405-7.925-55.275h46.597l.502-2.641h-62.565l7.925 55.275 5.851 56.405c.843 8.266 7.804 14.554 16.113 14.554h.21c1.818 0 3.58-.304 5.219-.861-3.319-2.632-5.617-6.549-6.076-11.052z" fill="#c9bfc8"/><path d="m241.528 278.178c2.244-8.193 9.69-13.874 18.185-13.874h22.214c.487 0 .969-.021 1.449-.052l-3.272-11.948-6.135-28.084h-24.539l-5.912 19.669h-9.766l-1.838 8.415-11.285 41.205c-.339 1.238-.445 2.527-.312 3.804l4.704 45.192 6.893 34.231h15.671l-6.458-32.067-4.704-45.192c-.133-1.276-.027-2.566.312-3.804z" fill="#c9bfc8"/><g id="XMLID_937_"><g><path d="m430.004 229.742v53c0 5.43-4.41 9.84-9.84 9.84h-19.13c-3.64 14.65-9.43 28.46-17.01 41.06l13.53 13.53c3.84 3.84 3.84 10.07 0 13.91l-37.48 37.48c-3.84 3.84-10.07 3.84-13.91 0l-13.53-13.53c-12.6 7.58-26.41 13.37-41.06 17.01v19.13c0 5.43-4.41 9.84-9.84 9.84h-53c-5.43 0-9.84-4.41-9.84-9.84v-19.13c-14.65-3.64-28.46-9.43-41.06-17.01l-13.53 13.53c-3.84 3.84-10.07 3.84-13.91 0l-37.48-37.48c-3.84-3.84-3.84-10.07 0-13.91l13.53-13.53c-7.58-12.6-13.37-26.41-17.01-41.06h-19.13c-5.43 0-9.84-4.41-9.84-9.84v-53c0-5.43 4.41-9.84 9.84-9.84h19.13c3.64-14.65 9.43-28.46 17.01-41.06l-13.53-13.53c-3.84-3.84-3.84-10.07 0-13.91l37.48-37.48c3.84-3.84 10.07-3.84 13.91 0l13.53 13.53c5.66-3.4 11.55-6.44 17.65-9.09l30.53-13.32h63.98l28.87 15.07c4.73 2.22 9.32 4.67 13.77 7.34l13.53-13.53c3.84-3.84 10.07-3.84 13.91 0l37.48 37.48c3.84 3.84 3.84 10.07 0 13.91l-13.53 13.53c7.58 12.6 13.37 26.41 17.01 41.06h19.13c5.43 0 9.84 4.41 9.84 9.84zm-82.45 27.39c0-50.99-41.33-92.33-92.32-92.33s-92.32 41.34-92.32 92.33 41.33 92.32 92.32 92.32 92.32-41.33 92.32-92.32z" fill="#99e6fc"/></g></g><path d="m321.528 125.118-58.515-79.059-62.378 86.771 51.957 99.481h9.742l15.939-23.254 43.652-77.56c1.137-2.018.981-4.517-.397-6.379z" fill="#f9f7f8"/><path d="m258.618 209.057-43.653-77.56c-1.136-2.019-.981-4.517.398-6.38l53.082-71.719-9.635-13.018c-1.394-1.883-4.21-1.883-5.604 0l-62.717 84.737c-1.378 1.862-1.534 4.361-.398 6.38l43.653 77.56 13.111 23.254h15.478l5.155-7.521z" fill="#efedef"/><path d="m281.927 209.057h-52.054v38.073h60.972c.866-1.507 1.369-3.25 1.369-5.113v-22.672c0-5.682-4.606-10.288-10.287-10.288z" fill="#d7d0d6"/><path d="m235.186 220.184v-11.127h-6.644c-5.681 0-10.287 4.606-10.287 10.287v22.672c0 5.681 4.606 10.287 10.287 10.287h53.386c5.681 0 10.287-4.606 10.287-10.287v-2.697h-37.893c-10.569.001-19.136-8.566-19.136-19.135z" fill="#c9bfc8"/><g fill="#01c0fa"><circle cx="256.009" cy="22.048" r="14.548"/><path d="m370.873 36.595h22.489c3.759 0 6.806-3.047 6.806-6.806v-15.484c0-3.759-3.047-6.806-6.806-6.806h-22.489c-3.759 0-6.806 3.047-6.806 6.806v15.485c.001 3.758 3.048 6.805 6.806 6.805z"/><path d="m141.144 36.595h-22.489c-3.759 0-6.806-3.047-6.806-6.806v-15.484c0-3.759 3.047-6.806 6.806-6.806h22.489c3.759 0 6.806 3.047 6.806 6.806v15.485c0 3.758-3.047 6.805-6.806 6.805z"/></g><circle cx="256.009" cy="135.728" fill="#efedef" r="17.96"/><path d="m420.163 212.403h-13.376c-3.245-11.241-7.734-22.071-13.396-32.321l9.463-9.463c3.275-3.274 5.079-7.629 5.079-12.261s-1.804-8.986-5.078-12.262l-37.476-37.476c-3.275-3.274-7.63-5.078-12.262-5.078s-8.986 1.804-12.261 5.078l-9.464 9.465c-3.023-1.67-6.108-3.241-9.22-4.702l-14.446-19.518c-2.465-3.328-7.16-4.031-10.49-1.566-3.329 2.464-4.03 7.161-1.566 10.49l19.203 25.944-40.986 72.822h-35.757l-40.987-72.822 51.091-69.028v51.781c-10.248 3.294-17.686 12.914-17.686 24.242 0 14.038 11.421 25.459 25.46 25.459s25.46-11.421 25.46-25.459c0-11.529-7.705-21.287-18.234-24.409v-52.355l13.388 18.087c2.464 3.329 7.161 4.03 10.49 1.566s4.03-7.161 1.566-10.49l-20.505-27.704c3.907-2.595 6.943-6.399 8.568-10.876h79.826v.242c0 7.888 6.418 14.306 14.306 14.306h22.489c7.888 0 14.306-6.418 14.306-14.306v-15.483c0-7.888-6.418-14.306-14.306-14.306h-22.489c-7.888 0-14.306 6.418-14.306 14.306v.242h-79.826c-3.075-8.476-11.207-14.548-20.732-14.548s-17.657 6.072-20.732 14.548h-79.827v-.242c0-7.888-6.418-14.306-14.305-14.306h-22.488c-7.888 0-14.306 6.418-14.306 14.306v15.484c0 7.888 6.418 14.306 14.306 14.306h22.488c7.888 0 14.306-6.418 14.306-14.306v-.242h79.826c1.625 4.477 4.661 8.281 8.568 10.876l-53.214 71.898c-3.917 1.761-7.785 3.683-11.555 5.764l-9.464-9.464c-3.274-3.275-7.629-5.079-12.261-5.079s-8.986 1.804-12.262 5.078l-37.476 37.476c-3.274 3.275-5.078 7.63-5.078 12.262s1.804 8.986 5.078 12.261l9.464 9.463c-5.661 10.25-10.15 21.08-13.396 32.321h-13.375c-9.561 0-17.339 7.778-17.339 17.34v52.998c0 9.562 7.778 17.34 17.339 17.34h13.376c3.245 11.242 7.734 22.071 13.396 32.321l-9.463 9.463c-3.275 3.274-5.079 7.629-5.079 12.261s1.804 8.986 5.078 12.262l37.476 37.476c3.275 3.274 7.63 5.078 12.262 5.078s8.986-1.804 12.261-5.078l9.464-9.464c10.25 5.661 21.081 10.15 32.32 13.396v13.376c0 8.997 6.89 16.411 15.67 17.254l5.264 50.752c1.238 12.138 11.374 21.291 23.574 21.291h.209c12.202 0 22.337-9.153 23.573-21.279l.761-7.34c.427-4.12-2.566-7.807-6.687-8.233-4.125-.423-7.807 2.567-8.233 6.687l-.762 7.353c-.454 4.454-4.174 7.813-8.652 7.813h-.209c-4.478 0-8.197-3.359-8.653-7.826l-5.096-49.133h27.708l-1.02 9.831c-.428 4.119 2.566 7.806 6.687 8.233.263.027.523.041.782.041 3.795 0 7.051-2.87 7.451-6.728l1.213-11.693c8.016-1.524 14.098-8.572 14.098-17.024v-13.376c11.239-3.245 22.07-7.734 32.32-13.396l9.464 9.463c3.274 3.275 7.629 5.079 12.261 5.079s8.986-1.804 12.262-5.078l37.476-37.476c3.274-3.275 5.078-7.63 5.078-12.262s-1.804-8.986-5.078-12.261l-9.464-9.463c5.661-10.25 10.15-21.079 13.396-32.321h13.376c9.561 0 17.339-7.778 17.339-17.34v-52.998c-.003-9.561-7.781-17.34-17.342-17.34zm-48.596-197.403h21.101v14.096h-21.101zm-231.117 14.096h-21.1v-14.096h21.1zm91.625 308.73-4.353-41.822 9.913-36.201h36.745l9.915 36.201-4.307 41.367c-7.835 2.396-16.145 3.694-24.755 3.694-8.028.001-15.791-1.144-23.158-3.239zm1.677-121.268c.005 0 .01-.001.016-.001h44.483c.005 0 .01.001.016.001.005 0 .01-.001.015-.001h3.645c1.537 0 2.787 1.25 2.787 2.787v22.673c0 1.537-1.25 2.787-2.787 2.787h-53.385c-1.537 0-2.787-1.25-2.787-2.787v-22.673c0-1.537 1.25-2.787 2.787-2.787h5.195c.005 0 .01.001.015.001zm65.383 76.842-9.667-35.298c6.043-2.845 10.246-8.976 10.246-16.086v-22.673c0-6.9-3.958-12.881-9.715-15.83l10.65-18.922c24.476 15.502 39.41 42.333 39.41 71.65 0 32.104-17.929 60.096-44.298 74.498l3.6-34.582c.096-.924.02-1.859-.226-2.757zm-32.666-157.671c0 5.768-4.692 10.459-10.46 10.459s-10.46-4.691-10.46-10.459 4.692-10.46 10.46-10.46 10.46 4.692 10.46 10.46zm-10.46-120.729c3.886 0 7.048 3.162 7.048 7.048s-3.162 7.048-7.048 7.048-7.048-3.162-7.048-7.048 3.162-7.048 7.048-7.048zm166.493 267.741c0 1.29-1.049 2.34-2.339 2.34h-19.127c-3.445 0-6.448 2.348-7.278 5.691-3.413 13.737-8.851 26.857-16.162 38.996-1.778 2.951-1.315 6.735 1.121 9.173l13.532 13.531c.566.566.685 1.212.685 1.653 0 .362-.089 1.059-.686 1.654l-37.476 37.476c-.596.597-1.292.686-1.654.686-.441 0-1.087-.118-1.653-.686l-13.531-13.531c-2.437-2.436-6.22-2.898-9.173-1.121-12.142 7.312-25.262 12.749-38.996 16.162-3.344.83-5.691 3.833-5.691 7.278v19.127c0 1.29-1.05 2.339-2.34 2.339h-52.998c-1.29 0-2.34-1.049-2.34-2.339v-19.127c0-3.445-2.348-6.448-5.691-7.278-13.734-3.413-26.854-8.851-38.996-16.162-2.954-1.778-6.736-1.314-9.173 1.121l-13.531 13.532c-.566.566-1.212.685-1.653.685-.362 0-1.059-.089-1.654-.686l-37.476-37.476c-.597-.596-.686-1.292-.686-1.654 0-.441.118-1.087.686-1.653l13.531-13.531c2.437-2.438 2.899-6.222 1.121-9.173-7.312-12.139-12.749-25.259-16.162-38.996-.83-3.344-3.833-5.691-7.278-5.691h-19.128c-1.29 0-2.339-1.05-2.339-2.34v-52.998c0-1.29 1.049-2.34 2.339-2.34h19.127c3.445 0 6.448-2.348 7.278-5.691 3.413-13.737 8.851-26.857 16.162-38.996 1.778-2.952 1.315-6.735-1.121-9.173l-13.532-13.531c-.566-.566-.685-1.212-.685-1.653 0-.362.089-1.059.686-1.654l37.476-37.476c.596-.597 1.292-.686 1.654-.686.441 0 1.087.118 1.653.686l13.531 13.531c2.437 2.435 6.221 2.899 9.174 1.121.278-.167.564-.323.843-.489l21.056 37.412c-11.518 6.985-21.624 16.302-29.51 27.287-2.415 3.365-1.646 8.052 1.719 10.467 1.325.95 2.854 1.408 4.368 1.408 2.333 0 4.634-1.087 6.099-3.127 6.615-9.215 15.062-17.05 24.684-22.96l10.724 19.053c-6.416 2.688-10.937 9.031-10.937 16.411v22.673c0 7.643 4.855 14.157 11.636 16.668l-9.507 34.717c-.246.896-.322 1.832-.227 2.757l3.688 35.43c-27.256-14.126-45.936-42.586-45.936-75.346 0-7.764 1.06-15.482 3.149-22.94 1.118-3.988-1.21-8.128-5.198-9.245-3.991-1.117-8.128 1.21-9.245 5.198-2.459 8.775-3.706 17.855-3.706 26.987 0 55.043 44.781 99.824 99.825 99.824s99.825-44.781 99.825-99.824c0-34.769-17.845-66.567-47.044-84.739l21.081-37.456c2.899 1.552 6.489 1.059 8.837-1.287l13.531-13.532c.566-.566 1.212-.685 1.653-.685.362 0 1.059.089 1.654.686l37.476 37.476c.597.596.686 1.292.686 1.654 0 .441-.118 1.087-.686 1.653l-13.531 13.531c-2.437 2.438-2.899 6.221-1.121 9.173 7.312 12.139 12.749 25.259 16.162 38.996.83 3.344 3.833 5.691 7.278 5.691h19.127c1.29 0 2.339 1.05 2.339 2.34v52.998z"/></g></svg>