<svg height="454pt" viewBox="0 -30 454.929 454" width="454pt" xmlns="http://www.w3.org/2000/svg"><path d="m261.519531 287.214844h-134.375c7.382813-6.917969 12.585938-15.839844 14.96875-25.675782l36.949219-130.464843h-9.691406c-13.398438-.039063-25.050782 9.171875-28.109375 22.21875l-.078125.289062-39.070313 137.957031c-2.382812 9.835938-7.585937 18.757813-14.96875 25.675782h175.75c-1.296875-6.378906-1.953125-12.871094-1.953125-19.378906 0-3.550782.195313-7.09375.578125-10.621094zm0 0" fill="#d4e1f4"/><path d="m331.109375 117.074219h-22.960937v-36.628907c-.023438-24.890624-20.191407-45.058593-45.078126-45.089843h-62.242187c-6.964844 0-13.699219-2.519531-18.957031-7.09375l-19.832032-17.253907c-7.804687-6.800781-17.808593-10.542968-28.160156-10.542968h-88.800781c-24.886719.027344-45.0546875 20.199218-45.078125 45.085937v233.898438c.00390625 27.550781 21.578125 50.269531 49.089844 51.699219v.070312h222.789062v-14h-184.734375c7.382813-6.914062 12.585938-15.839844 14.96875-25.671875l39.070313-137.960937.078125-.289063c3.054687-13.046875 14.707031-22.261719 28.109375-22.222656h161.738281c8.617187 0 16.785156 3.847656 22.269531 10.492187 5.488282 6.644532 7.722656 15.394532 6.089844 23.855469l-9.746094 40.804687 13.617188 3.253907 9.78125-40.949219.058594-.269531c2.484374-12.585938-.796876-25.621094-8.941407-35.53125-8.144531-9.914063-20.296875-15.65625-33.125-15.65625zm-263.894531 14.773437v182.050782c-4.851563 2.179687-10.113282 3.308593-15.433594 3.316406-2.160156-.003906-4.316406-.1875-6.445312-.554688v-213.511718c.019531-15.941407 12.9375-28.859376 28.878906-28.878907h144.417968c9.28125.011719 17.53125 5.917969 20.539063 14.699219h-129.074219c-23.671875.027344-42.855468 19.210938-42.882812 42.878906zm102.15625-14.773437c-19.832032-.054688-37.097656 13.539062-41.695313 32.832031l-39.070312 137.960938-.078125.300781c-1.300782 5.449219-3.796875 10.542969-7.3125 14.910156v-171.230469c.019531-15.941406 12.9375-28.859375 28.882812-28.878906h145.015625c8.945313.015625 16.910157 5.664062 19.882813 14.101562zm124.777344 0h-4.636719c-3.347657-16.339844-17.71875-28.078125-34.398438-28.101563h-1.472656c-3.359375-16.675781-18-28.675781-35.011719-28.699218h-144.414062c-23.667969.027343-42.851563 19.207031-42.878906 42.875v208.0625c-2.261719-1.460938-4.363282-3.15625-6.265626-5.0625-7.109374-7.0625-11.097656-16.675782-11.070312-26.699219v-233.898438c.019531-17.160156 13.921875-31.0625 31.078125-31.082031h88.800781c6.972656 0 13.707032 2.519531 18.964844 7.101562l19.832031 17.261719c7.808594 6.789063 17.808594 10.527344 28.152344 10.527344h62.242187c17.160157.023437 31.0625 13.929687 31.078126 31.089844zm0 0" fill="#0635c9"/><g fill="#1ae5be"><path d="m357.941406 200.835938c-.539062 0-1.074218 0-1.609375.019531-30.472656.515625-58.933593 15.316406-76.851562 39.972656-17.917969 24.652344-23.210938 56.289063-14.292969 85.433594 6.0625 19.609375 18.148438 36.8125 34.542969 49.167969 33.761719 25.324218 80.019531 25.910156 114.414062 1.453124 34.390625-24.460937 49.023438-68.347656 36.191407-108.550781-12.835938-40.203125-50.191407-67.496093-92.394532-67.5zm0 180c-17.96875.050781-35.460937-5.777344-49.800781-16.601563-14.03125-10.574219-24.378906-25.300781-29.570313-42.085937-7.644531-24.949219-3.109374-52.039063 12.242188-73.140626 15.351562-21.097656 39.734375-33.75 65.824219-34.160156l.199219-.003906c.289062-.011719.578124-.011719.867187-.011719h.238281c45.839844 0 83 37.160157 83 83 0 45.839844-37.160156 83-83 83zm0 0"/><path d="m398.4375 290.835938h-33.5v-33.5c0-3.867188-3.132812-7-7-7s-7 3.132812-7 7v33.5h-33.5c-3.867188 0-7 3.132812-7 7 0 3.863281 3.132812 7 7 7h33.5v33.5c0 3.863281 3.132812 7 7 7s7-3.136719 7-7v-33.5h33.5c3.867188 0 7-3.136719 7-7 0-3.867188-3.132812-7-7-7zm0 0"/></g></svg>